<?xml version="1.0" encoding="UTF-8" standalone="no"?><!-- Generator: Gravit.io --><svg xmlns="http://www.w3.org/2000/svg" xmlns:xlink="http://www.w3.org/1999/xlink" style="isolation:isolate" viewBox="0 0 512 512" width="512pt" height="512pt"><defs><clipPath id="_clipPath_sK8efeRWeGXbXJfcWgmk0mWzndZamfJG"><rect width="512" height="512"/></clipPath></defs><g clip-path="url(#_clipPath_sK8efeRWeGXbXJfcWgmk0mWzndZamfJG)"><path d=" M 147.732 28.22 C 133.904 28.25 120.368 36.1 113.408 48.074 L 5.14 236.146 C -1.713 248.152 -1.713 263.846 5.14 275.852 L 113.408 463.926 C 120.368 475.9 133.904 483.752 147.732 483.78 L 364.268 483.78 C 378.096 483.75 391.632 475.9 398.592 463.926 L 506.86 275.852 C 513.714 263.846 513.712 248.152 506.86 236.146 L 398.592 48.074 C 391.632 36.098 378.096 28.248 364.268 28.22 L 147.732 28.22 Z  M 149.698 138.246 C 149.996 138.216 150.308 138.216 150.606 138.246 L 187.954 138.246 C 189.641 138.301 191.182 139.216 192.038 140.67 L 255.396 253.574 C 255.716 254.134 255.92 254.754 255.996 255.394 C 256.076 254.754 256.28 254.134 256.6 253.574 L 319.806 140.67 C 320.692 139.173 322.301 138.252 324.04 138.246 L 361.39 138.246 C 364.696 138.274 367.174 142.44 365.624 145.368 L 303.778 256 L 365.624 366.48 C 367.32 369.424 364.784 373.782 361.39 373.754 L 324.04 373.754 C 322.269 373.717 320.654 372.734 319.806 371.178 L 256.6 258.272 C 256.28 257.714 256.076 257.092 255.998 256.454 C 255.921 257.095 255.716 257.713 255.396 258.274 L 192.036 371.178 C 191.217 372.688 189.672 373.664 187.956 373.754 L 150.604 373.754 C 147.21 373.784 144.674 369.424 146.37 366.48 L 208.216 256 L 146.37 145.368 C 144.888 142.696 146.696 138.816 149.696 138.246 L 149.698 138.246 Z " fill="rgb(52,152,219)"/><path d=" M 147.732 28.22 C 133.904 28.25 120.368 36.1 113.408 48.074 L 5.14 236.146 C -1.713 248.152 -1.713 263.846 5.14 275.852 L 113.408 463.926 C 120.368 475.9 133.904 483.752 147.732 483.78 L 364.268 483.78 C 378.096 483.75 391.632 475.9 398.592 463.926 L 506.86 275.852 C 513.714 263.846 513.712 248.152 506.86 236.146 L 398.592 48.074 C 391.632 36.098 378.096 28.248 364.268 28.22 L 147.732 28.22 Z  M 255.396 258.274" fill="rgb(52,152,219)"/><path d=" M 315.518 221.685 L 176.742 363.194 C 170.154 370.538 156.925 373.353 147.589 364.401 L 147.589 364.401 C 139.048 355.423 140.907 342.672 148.785 335.237 L 290.305 196.473 C 299.495 188.786 277.698 167.064 302.911 141.869 C 311.86 132.902 324.652 127.759 336.404 127.518 C 338.874 127.481 341.009 128.855 341.974 131.138 C 342.958 133.403 342.476 135.91 340.712 137.673 L 323.249 155.136 C 321.298 157.088 319.901 160.904 320.133 163.654 Q 321.26 177.04 328.105 183.885 Q 334.95 190.73 348.336 191.857 C 351.086 192.089 354.902 190.692 356.854 188.741 L 374.317 171.278 C 376.08 169.514 378.587 169.032 380.852 170.016 C 383.136 170.981 384.509 173.116 384.472 175.586 C 384.231 187.338 379.088 200.13 370.121 209.079 C 344.926 234.292 323.947 211.845 315.518 221.685 Z  M 260.617 250.797" fill="rgb(255,255,255)"/><mask id="_mask_QttcsB4nGJ5eHSSbQDyWLrvuq0iFyXHT" x="-200%" y="-200%" width="400%" height="400%"><rect x="-200%" y="-200%" width="400%" height="400%" style="fill:white;"/><path d=" M 363.458 333.782 C 371.746 342.07 372.139 355.103 364.338 362.871 C 356.569 370.673 343.536 370.279 335.248 361.991 L 263.341 290.084 C 261.261 288.02 252.745 274.688 252.745 274.688 C 250.378 273.835 247.004 272.619 245.215 271.974 L 245.215 271.974 L 237.714 264.457 C 247.136 255.068 256.534 245.67 265.924 236.248 L 273.44 243.749 L 273.44 243.749 C 274.085 245.538 275.301 248.912 276.155 251.279 C 276.155 251.279 289.486 259.795 291.55 261.874 C 312.403 282.727 341.942 312.266 363.458 333.782 Z  M 292.861 284.334 M 155.828 175.419 L 142.509 155.069 L 156.535 141.043 L 176.885 154.362 L 178.75 158.888 C 180.431 162.971 184.331 168.82 187.452 171.943 L 258.832 243.34 L 244.806 257.365 L 173.409 185.986 C 170.287 182.864 164.437 178.965 160.355 177.283 L 155.828 175.419 Z " fill-rule="evenodd" fill="black" stroke="none"/></mask><path d=" M 363.458 333.782 C 371.746 342.07 372.139 355.103 364.338 362.871 C 356.569 370.673 343.536 370.279 335.248 361.991 L 263.341 290.084 C 261.261 288.02 252.745 274.688 252.745 274.688 C 250.378 273.835 247.004 272.619 245.215 271.974 L 245.215 271.974 L 237.714 264.457 C 247.136 255.068 256.534 245.67 265.924 236.248 L 273.44 243.749 L 273.44 243.749 C 274.085 245.538 275.301 248.912 276.155 251.279 C 276.155 251.279 289.486 259.795 291.55 261.874 C 312.403 282.727 341.942 312.266 363.458 333.782 Z  M 292.861 284.334 M 155.828 175.419 L 142.509 155.069 L 156.535 141.043 L 176.885 154.362 L 178.75 158.888 C 180.431 162.971 184.331 168.82 187.452 171.943 L 258.832 243.34 L 244.806 257.365 L 173.409 185.986 C 170.287 182.864 164.437 178.965 160.355 177.283 L 155.828 175.419 Z " fill-rule="evenodd" fill="rgb(255,255,255)" mask="url(#_mask_QttcsB4nGJ5eHSSbQDyWLrvuq0iFyXHT)" vector-effect="non-scaling-stroke" stroke-width="12" stroke="rgb(52,152,219)" stroke-linejoin="miter" stroke-linecap="butt" stroke-miterlimit="4"/><path d=" M 363.458 333.782 C 371.746 342.07 372.139 355.103 364.338 362.871 C 356.569 370.673 343.536 370.279 335.248 361.991 L 263.341 290.084 C 261.261 288.02 252.745 274.688 252.745 274.688 C 250.378 273.835 247.004 272.619 245.215 271.974 L 245.215 271.974 L 237.714 264.457 C 247.136 255.068 256.534 245.67 265.924 236.248 L 273.44 243.749 L 273.44 243.749 C 274.085 245.538 275.301 248.912 276.155 251.279 C 276.155 251.279 289.486 259.795 291.55 261.874 C 312.403 282.727 341.942 312.266 363.458 333.782 Z  M 292.861 284.334 M 155.828 175.419 L 142.509 155.069 L 156.535 141.043 L 176.885 154.362 L 178.75 158.888 C 180.431 162.971 184.331 168.82 187.452 171.943 L 258.832 243.34 L 244.806 257.365 L 173.409 185.986 C 170.287 182.864 164.437 178.965 160.355 177.283 L 155.828 175.419 Z " fill-rule="evenodd" fill="rgb(255,255,255)"/></g></svg>