<svg width="512" height="512" viewBox="0 0 512 512" fill="none" xmlns="http://www.w3.org/2000/svg">
<path fill-rule="evenodd" clip-rule="evenodd" d="M113.408 48.074C120.368 36.1 133.904 28.25 147.732 28.22H364.268C378.096 28.248 391.632 36.098 398.592 48.074L506.86 236.146C513.712 248.152 513.714 263.846 506.86 275.852L398.592 463.926C391.632 475.9 378.096 483.75 364.268 483.78H147.732C133.904 483.752 120.368 475.9 113.408 463.926L5.13999 275.852C-1.71301 263.846 -1.71301 248.152 5.13999 236.146L113.408 48.074ZM315.518 221.685L282.465 255.389C286.219 257.877 290.459 260.775 291.55 261.874L363.458 333.782C371.746 342.07 372.139 355.103 364.338 362.871C356.569 370.673 343.536 370.279 335.248 361.991L263.341 290.084C262.271 289.022 259.496 284.977 257.055 281.299L176.742 363.194C170.154 370.538 156.925 373.353 147.589 364.401C139.048 355.423 140.907 342.672 148.785 335.237L236.585 249.146L173.409 185.986C170.287 182.864 164.437 178.965 160.355 177.283L155.828 175.419L142.509 155.069L156.535 141.043L176.885 154.362L178.75 158.888C180.431 162.971 184.331 168.82 187.452 171.943L250.751 235.257L290.305 196.473C293.737 193.602 292.847 188.774 291.699 182.539C289.771 172.078 287.114 157.655 302.911 141.869C311.86 132.902 324.652 127.759 336.404 127.518C338.874 127.481 341.009 128.855 341.974 131.138C342.958 133.403 342.476 135.91 340.712 137.673L323.249 155.136C321.298 157.088 319.901 160.904 320.133 163.654C320.884 172.578 323.542 179.322 328.105 183.885C332.668 188.448 339.412 191.106 348.336 191.857C351.086 192.089 354.902 190.692 356.854 188.741L374.317 171.278C376.08 169.514 378.587 169.032 380.852 170.016C383.136 170.981 384.509 173.116 384.472 175.586C384.231 187.338 379.088 200.13 370.121 209.079C354.546 224.665 340.581 222.038 330.197 220.084C323.784 218.878 318.736 217.928 315.518 221.685Z" fill="white"/>
</svg>
